<?xml version="1.0" encoding="UTF-8"?>
<svg width="700pt" height="350pt" version="1.1" viewBox="0 100 700 350" xmlns="http://www.w3.org/2000/svg" xmlns:xlink="http://www.w3.org/1999/xlink">
 <defs>
  <symbol id="s" overflow="visible">
   <path d="m18.766-1.125c-0.96875 0.5-1.9805 0.875-3.0312 1.125-1.043 0.25781-2.1367 0.39062-3.2812 0.39062-3.3984 0-6.0898-0.94531-8.0781-2.8438-1.9922-1.9062-2.9844-4.4844-2.9844-7.7344 0-3.2578 0.99219-5.8359 2.9844-7.7344 1.9883-1.9062 4.6797-2.8594 8.0781-2.8594 1.1445 0 2.2383 0.13281 3.2812 0.39062 1.0508 0.25 2.0625 0.625 3.0312 1.125v4.2188c-0.98047-0.65625-1.9453-1.1406-2.8906-1.4531-0.94922-0.3125-1.9492-0.46875-3-0.46875-1.875 0-3.3516 0.60547-4.4219 1.8125-1.0742 1.1992-1.6094 2.8555-1.6094 4.9688 0 2.1055 0.53516 3.7617 1.6094 4.9688 1.0703 1.1992 2.5469 1.7969 4.4219 1.7969 1.0508 0 2.0508-0.14844 3-0.45312 0.94531-0.3125 1.9102-0.80078 2.8906-1.4688z"/>
  </symbol>
  <symbol id="b" overflow="visible">
   <path d="m13.734-11.141c-0.4375-0.19531-0.87109-0.34375-1.2969-0.4375-0.41797-0.10156-0.83984-0.15625-1.2656-0.15625-1.2617 0-2.2305 0.40625-2.9062 1.2188-0.67969 0.80469-1.0156 1.9531-1.0156 3.4531v7.0625h-4.8906v-15.312h4.8906v2.5156c0.625-1 1.3438-1.7266 2.1562-2.1875 0.82031-0.46875 1.8008-0.70312 2.9375-0.70312 0.16406 0 0.34375 0.011719 0.53125 0.03125 0.19531 0.011719 0.47656 0.039062 0.84375 0.078125z"/>
  </symbol>
  <symbol id="a" overflow="visible">
   <path d="m17.641-7.7031v1.4062h-11.453c0.125 1.1484 0.53906 2.0078 1.25 2.5781 0.70703 0.57422 1.7031 0.85938 2.9844 0.85938 1.0312 0 2.082-0.14844 3.1562-0.45312 1.082-0.3125 2.1914-0.77344 3.3281-1.3906v3.7656c-1.1562 0.4375-2.3125 0.76562-3.4688 0.98438-1.1562 0.22656-2.3125 0.34375-3.4688 0.34375-2.7734 0-4.9297-0.70312-6.4688-2.1094-1.5312-1.4062-2.2969-3.3789-2.2969-5.9219 0-2.5 0.75391-4.4609 2.2656-5.8906 1.5078-1.4375 3.582-2.1562 6.2188-2.1562 2.4062 0 4.332 0.73047 5.7812 2.1875 1.4453 1.4492 2.1719 3.3828 2.1719 5.7969zm-5.0312-1.625c0-0.92578-0.27344-1.6719-0.8125-2.2344-0.54297-0.57031-1.25-0.85938-2.125-0.85938-0.94922 0-1.7188 0.26562-2.3125 0.79688s-0.96484 1.2969-1.1094 2.2969z"/>
  </symbol>
  <symbol id="j" overflow="visible">
   <path d="m9.2188-6.8906c-1.0234 0-1.793 0.17188-2.3125 0.51562-0.51172 0.34375-0.76562 0.85547-0.76562 1.5312 0 0.625 0.20703 1.1172 0.625 1.4688 0.41406 0.34375 0.98828 0.51562 1.7188 0.51562 0.92578 0 1.7031-0.32812 2.3281-0.98438 0.63281-0.66406 0.95312-1.4922 0.95312-2.4844v-0.5625zm7.4688-1.8438v8.7344h-4.9219v-2.2656c-0.65625 0.92969-1.3984 1.6055-2.2188 2.0312-0.82422 0.41406-1.8242 0.625-3 0.625-1.5859 0-2.8711-0.45703-3.8594-1.375-0.99219-0.92578-1.4844-2.1289-1.4844-3.6094 0-1.7891 0.61328-3.1016 1.8438-3.9375 1.2383-0.84375 3.1797-1.2656 5.8281-1.2656h2.8906v-0.39062c0-0.76953-0.30859-1.332-0.92188-1.6875-0.61719-0.36328-1.5703-0.54688-2.8594-0.54688-1.0547 0-2.0312 0.10547-2.9375 0.3125-0.89844 0.21094-1.7305 0.52344-2.5 0.9375v-3.7344c1.0391-0.25 2.0859-0.44141 3.1406-0.57812 1.0625-0.13281 2.125-0.20312 3.1875-0.20312 2.7578 0 4.75 0.54688 5.9688 1.6406 1.2266 1.0859 1.8438 2.8555 1.8438 5.3125z"/>
  </symbol>
  <symbol id="c" overflow="visible">
   <path d="m7.7031-19.656v4.3438h5.0469v3.5h-5.0469v6.5c0 0.71094 0.14062 1.1875 0.42188 1.4375s0.83594 0.375 1.6719 0.375h2.5156v3.5h-4.1875c-1.9375 0-3.3125-0.39844-4.125-1.2031-0.80469-0.8125-1.2031-2.1797-1.2031-4.1094v-6.5h-2.4219v-3.5h2.4219v-4.3438z"/>
  </symbol>
  <symbol id="e" overflow="visible">
   <path d="m12.766-13.078v-8.2031h4.9219v21.281h-4.9219v-2.2188c-0.66797 0.90625-1.4062 1.5703-2.2188 1.9844s-1.7578 0.625-2.8281 0.625c-1.8867 0-3.4336-0.75-4.6406-2.25-1.2109-1.5-1.8125-3.4258-1.8125-5.7812 0-2.3633 0.60156-4.2969 1.8125-5.7969 1.207-1.5 2.7539-2.25 4.6406-2.25 1.0625 0 2 0.21484 2.8125 0.64062 0.82031 0.42969 1.5664 1.0859 2.2344 1.9688zm-3.2188 9.9219c1.0391 0 1.8359-0.37891 2.3906-1.1406 0.55078-0.76953 0.82812-1.8828 0.82812-3.3438 0-1.457-0.27734-2.5664-0.82812-3.3281-0.55469-0.76953-1.3516-1.1562-2.3906-1.1562-1.043 0-1.8398 0.38672-2.3906 1.1562-0.55469 0.76172-0.82812 1.8711-0.82812 3.3281 0 1.4609 0.27344 2.5742 0.82812 3.3438 0.55078 0.76172 1.3477 1.1406 2.3906 1.1406z"/>
  </symbol>
  <symbol id="i" overflow="visible">
   <path d="m10.5-3.1562c1.0508 0 1.8516-0.37891 2.4062-1.1406 0.55078-0.76953 0.82812-1.8828 0.82812-3.3438 0-1.457-0.27734-2.5664-0.82812-3.3281-0.55469-0.76953-1.3555-1.1562-2.4062-1.1562-1.0547 0-1.8594 0.38672-2.4219 1.1562-0.55469 0.77344-0.82812 1.8828-0.82812 3.3281 0 1.4492 0.27344 2.5586 0.82812 3.3281 0.5625 0.77344 1.3672 1.1562 2.4219 1.1562zm-3.25-9.9219c0.67578-0.88281 1.4219-1.5391 2.2344-1.9688 0.82031-0.42578 1.7656-0.64062 2.8281-0.64062 1.8945 0 3.4453 0.75 4.6562 2.25 1.207 1.5 1.8125 3.4336 1.8125 5.7969 0 2.3555-0.60547 4.2812-1.8125 5.7812-1.2109 1.5-2.7617 2.25-4.6562 2.25-1.0625 0-2.0078-0.21094-2.8281-0.625-0.8125-0.42578-1.5586-1.0859-2.2344-1.9844v2.2188h-4.8906v-21.281h4.8906z"/>
  </symbol>
  <symbol id="h" overflow="visible">
   <path d="m0.34375-15.312h4.8906l4.125 10.391 3.5-10.391h4.8906l-6.4375 16.766c-0.64844 1.6953-1.4023 2.8828-2.2656 3.5625-0.86719 0.6875-2 1.0312-3.4062 1.0312h-2.8438v-3.2188h1.5312c0.83203 0 1.4375-0.13672 1.8125-0.40625 0.38281-0.26172 0.67969-0.73047 0.89062-1.4062l0.14062-0.42188z"/>
  </symbol>
  <symbol id="g" overflow="visible">
   <path d="m14.953-3.7188h-8.2188l-1.3125 3.7188h-5.2812l7.5625-20.406h6.2656l7.5625 20.406h-5.2812zm-6.9062-3.7812h5.5781l-2.7812-8.125z"/>
  </symbol>
  <symbol id="f" overflow="visible">
   <path d="m17.75-9.3281v9.3281h-4.9219v-7.1406c0-1.3203-0.03125-2.2344-0.09375-2.7344s-0.16797-0.86719-0.3125-1.1094c-0.1875-0.3125-0.44922-0.55469-0.78125-0.73438-0.32422-0.17578-0.69531-0.26562-1.1094-0.26562-1.0234 0-1.8242 0.39844-2.4062 1.1875-0.58594 0.78125-0.875 1.8711-0.875 3.2656v7.5312h-4.8906v-15.312h4.8906v2.2344c0.73828-0.88281 1.5195-1.5391 2.3438-1.9688 0.83203-0.42578 1.75-0.64062 2.75-0.64062 1.7695 0 3.1133 0.54688 4.0312 1.6406 0.91406 1.0859 1.375 2.6562 1.375 4.7188z"/>
  </symbol>
  <symbol id="r" overflow="visible">
   <path d="m12.422-21.281v3.2188h-2.7031c-0.6875 0-1.1719 0.125-1.4531 0.375-0.27344 0.25-0.40625 0.6875-0.40625 1.3125v1.0625h4.1875v3.5h-4.1875v11.812h-4.8906v-11.812h-2.4375v-3.5h2.4375v-1.0625c0-1.6641 0.46094-2.8984 1.3906-3.7031 0.92578-0.80078 2.3672-1.2031 4.3281-1.2031z"/>
  </symbol>
  <symbol id="d" overflow="visible">
   <path d="m9.6406-12.188c-1.0859 0-1.9141 0.39062-2.4844 1.1719-0.57422 0.78125-0.85938 1.9062-0.85938 3.375s0.28516 2.5938 0.85938 3.375c0.57031 0.77344 1.3984 1.1562 2.4844 1.1562 1.0625 0 1.875-0.38281 2.4375-1.1562 0.57031-0.78125 0.85938-1.9062 0.85938-3.375s-0.28906-2.5938-0.85938-3.375c-0.5625-0.78125-1.375-1.1719-2.4375-1.1719zm0-3.5c2.6328 0 4.6914 0.71484 6.1719 2.1406 1.4766 1.418 2.2188 3.3867 2.2188 5.9062 0 2.5117-0.74219 4.4805-2.2188 5.9062-1.4805 1.418-3.5391 2.125-6.1719 2.125-2.6484 0-4.7148-0.70703-6.2031-2.125-1.4922-1.4258-2.2344-3.3945-2.2344-5.9062 0-2.5195 0.74219-4.4883 2.2344-5.9062 1.4883-1.4258 3.5547-2.1406 6.2031-2.1406z"/>
  </symbol>
  <symbol id="q" overflow="visible">
   <path d="m16.547-12.766c0.61328-0.94531 1.3477-1.6719 2.2031-2.1719 0.85156-0.5 1.7891-0.75 2.8125-0.75 1.7578 0 3.0977 0.54688 4.0156 1.6406 0.92578 1.0859 1.3906 2.6562 1.3906 4.7188v9.3281h-4.9219v-7.9844-0.35938c0.007813-0.13281 0.015625-0.32031 0.015625-0.5625 0-1.082-0.16406-1.8633-0.48438-2.3438-0.3125-0.48828-0.82422-0.73438-1.5312-0.73438-0.92969 0-1.6484 0.38672-2.1562 1.1562-0.51172 0.76172-0.77344 1.8672-0.78125 3.3125v7.5156h-4.9219v-7.9844c0-1.6953-0.14844-2.7852-0.4375-3.2656-0.29297-0.48828-0.8125-0.73438-1.5625-0.73438-0.9375 0-1.6641 0.38672-2.1719 1.1562-0.51172 0.76172-0.76562 1.8594-0.76562 3.2969v7.5312h-4.9219v-15.312h4.9219v2.2344c0.60156-0.86328 1.2891-1.5156 2.0625-1.9531 0.78125-0.4375 1.6406-0.65625 2.5781-0.65625 1.0625 0 2 0.25781 2.8125 0.76562 0.8125 0.51172 1.4258 1.2305 1.8438 2.1562z"/>
  </symbol>
  <symbol id="p" overflow="visible">
   <path d="m17.75-9.3281v9.3281h-4.9219v-7.1094c0-1.3438-0.03125-2.2656-0.09375-2.7656s-0.16797-0.86719-0.3125-1.1094c-0.1875-0.3125-0.44922-0.55469-0.78125-0.73438-0.32422-0.17578-0.69531-0.26562-1.1094-0.26562-1.0234 0-1.8242 0.39844-2.4062 1.1875-0.58594 0.78125-0.875 1.8711-0.875 3.2656v7.5312h-4.8906v-21.281h4.8906v8.2031c0.73828-0.88281 1.5195-1.5391 2.3438-1.9688 0.83203-0.42578 1.75-0.64062 2.75-0.64062 1.7695 0 3.1133 0.54688 4.0312 1.6406 0.91406 1.0859 1.375 2.6562 1.375 4.7188z"/>
  </symbol>
  <symbol id="o" overflow="visible">
   <path d="m2.5781-20.406h5.875l7.4219 14v-14h4.9844v20.406h-5.875l-7.4219-14v14h-4.9844z"/>
  </symbol>
  <symbol id="n" overflow="visible">
   <path d="m2.1875-5.9688v-9.3438h4.9219v1.5312c0 0.83594-0.007813 1.875-0.015625 3.125-0.011719 1.25-0.015625 2.0859-0.015625 2.5 0 1.2422 0.03125 2.1328 0.09375 2.6719 0.070313 0.54297 0.17969 0.93359 0.32812 1.1719 0.20703 0.32422 0.47266 0.57422 0.79688 0.75 0.32031 0.16797 0.69141 0.25 1.1094 0.25 1.0195 0 1.8203-0.39062 2.4062-1.1719 0.58203-0.78125 0.875-1.8672 0.875-3.2656v-7.5625h4.8906v15.312h-4.8906v-2.2188c-0.74219 0.89844-1.5234 1.5586-2.3438 1.9844-0.82422 0.41406-1.7344 0.625-2.7344 0.625-1.7617 0-3.1055-0.53906-4.0312-1.625-0.92969-1.082-1.3906-2.6602-1.3906-4.7344z"/>
  </symbol>
  <symbol id="m" overflow="visible">
   <path d="m2.5781-20.406h8.7344c2.5938 0 4.582 0.57812 5.9688 1.7344 1.3945 1.1484 2.0938 2.7891 2.0938 4.9219 0 2.1367-0.69922 3.7812-2.0938 4.9375-1.3867 1.1562-3.375 1.7344-5.9688 1.7344h-3.4844v7.0781h-5.25zm5.25 3.8125v5.7031h2.9219c1.0195 0 1.8047-0.25 2.3594-0.75 0.5625-0.5 0.84375-1.2031 0.84375-2.1094 0-0.91406-0.28125-1.6172-0.84375-2.1094-0.55469-0.48828-1.3398-0.73438-2.3594-0.73438z"/>
  </symbol>
  <symbol id="l" overflow="visible">
   <path d="m2.3594-15.312h4.8906v15.031c0 2.0508-0.49609 3.6172-1.4844 4.7031-0.98047 1.082-2.4062 1.625-4.2812 1.625h-2.4219v-3.2188h0.85938c0.92578 0 1.5625-0.21094 1.9062-0.625 0.35156-0.41797 0.53125-1.2461 0.53125-2.4844zm0-5.9688h4.8906v4h-4.8906z"/>
  </symbol>
  <symbol id="k" overflow="visible">
   <path d="m14.719-14.828v3.9844c-0.65625-0.45703-1.3242-0.79688-2-1.0156-0.66797-0.21875-1.3594-0.32812-2.0781-0.32812-1.3672 0-2.4336 0.40234-3.2031 1.2031-0.76172 0.79297-1.1406 1.9062-1.1406 3.3438 0 1.4297 0.37891 2.543 1.1406 3.3438 0.76953 0.79297 1.8359 1.1875 3.2031 1.1875 0.75781 0 1.4844-0.10938 2.1719-0.32812 0.6875-0.22656 1.3203-0.56641 1.9062-1.0156v4c-0.76172 0.28125-1.5391 0.48828-2.3281 0.625-0.78125 0.14453-1.5742 0.21875-2.375 0.21875-2.7617 0-4.9219-0.70703-6.4844-2.125-1.5547-1.4141-2.3281-3.3828-2.3281-5.9062 0-2.5312 0.77344-4.5039 2.3281-5.9219 1.5625-1.4141 3.7227-2.125 6.4844-2.125 0.80078 0 1.5938 0.074219 2.375 0.21875 0.78125 0.13672 1.5547 0.35156 2.3281 0.64062z"/>
  </symbol>
 </defs>
 <g>
  <path d="m173.31 181.52c-2.9922 0.46484-5.7734 1.4961-8.3672 2.7969l-0.11719 0.058594-0.11328 0.078125c-2.3125 1.6719-5.0703 3.3711-7.2695 6.2461-2.1992 2.8789-3.707 6.9023-3.7266 12.836v0.054688c0.09375 3.0781 0.39844 6.2031 2.0156 9.4062 1.6133 3.1953 4.4727 6.3789 9.3945 9.8359h0.007813c2.3125 1.6836 4.6602 2.4258 6.9766 3.0938-4.8438 10.219-6.8398 19.609-6.5234 31l0.007812 0.26953 0.09375 0.25781c1.6992 4.668 5.7773 7.4336 9.8555 10.027l0.17969 0.11328 0.19922 0.066406c0.81641 0.27344 2.9414 2.1797 5.043 4.8203 2.1016 2.6406 4.3945 5.9336 6.6211 8.9062l0.17969 0.23828 9.4648 6.1953c2.1992 5.8203 7.4922 8.4727 11.574 9.6836 0.56641 1.1797 1.168 2.4297 2.4805 3.4023 1.4336 1.0625 3.582 1.6289 6.2852 1.8906 1.7188 1.957 3.9062 2.6602 5.5156 2.9805l4.7734 3.043 0.91406-0.61328c0.82812-0.55078 2.2812-1.4648 3.7109-2.7266 0.94531-0.003906 1.918 0.023438 2.9961-0.33594 1.0156-0.33984 1.9453-1.2617 2.8438-2.2461 1.2695-0.13281 2.7031-0.13672 4.3203-0.83594 1.5352-0.66406 2.9805-2.2773 4.3828-4.4375 2.2773-0.86719 4.7695-1.6797 6.9453-3.1484 2.0156-1.3594 3.5664-3.5273 4.207-6.3867 2.7656-1.7031 5.7539-3.2461 11.137-7.9141l0.16406-0.13672 7.3086-10.598c0.12109-0.074219 0.25391-0.15234 0.48047-0.28125 0.60937-0.34766 1.5156-0.86328 2.543-1.4688 2.0508-1.2109 4.5664-2.7773 6.3984-4.4023 1.2656-1.0859 2.5742-2.1602 3.3789-4.0469 0.80469-1.8945 1.0586-4.3438 0.86719-8.3086l-0.007813-0.15234-0.03125-0.14453c-1.4648-6.4453-1.7266-15.164-6.8281-25.543 2.5898-0.44531 5.125-0.91016 7.2266-2.1719l0.10156-0.0625c4.9531-3.4766 7.8945-6.8164 9.5508-10.094 1.6562-3.2695 1.9727-6.4219 1.875-9.2617v-0.007812c-0.16406-6.043-1.6602-10.043-3.8242-12.891-2.1641-2.8477-4.8594-4.4805-7.168-6.1484l-0.11328-0.078125-0.11719-0.058594c-5.1875-2.6055-11.102-4.1172-18.008-2.2188l-0.074219 0.019532-0.074219 0.027343c-3.1523 1.1875-5.543 2.8242-6.957 5.0508-1.418 2.2227-1.7148 4.9531-1.0195 7.7891l0.050781 0.20312 0.097656 0.19141c2.8008 5.2031 6.6016 7.375 10.395 7.8125l4.8594 0.55859-3.4766-3.4375c-1.2617-1.2422-1.8672-2.3242-2.0664-3.1211-0.20312-0.79688-0.085937-1.3125 0.25-1.8438 0.65625-1.043 2.7031-2.0352 5.3711-2.1211 2.6211 0.40234 4.5977 2.3555 5.6484 4.9102 1.0664 2.6055 0.98438 5.625-0.11719 7.3711-1.332 2.1094-5.1094 3.375-9.0508 3.2734s-7.7227-1.6914-8.6953-3.2109c-3.1484-4.9102-7.7227-10.113-13.574-12.297l-0.027344-0.011719-0.027344-0.007813c-6.2383-2.0898-14.781-2.1289-26.938 0.67969-12.133-2.8086-20.047-2.7578-26.246-0.67969l-0.027343 0.007813-0.027344 0.011719c-5.8516 2.1836-10.426 7.3867-13.574 12.297-0.97656 1.5234-4.7539 3.1172-8.6953 3.2188-3.9414 0.10156-7.7188-1.168-9.0508-3.2773-1.1055-1.75-1.1875-4.7695-0.11719-7.3711 1.0508-2.5586 3.0273-4.5117 5.6484-4.9102 2.668 0.082031 4.7148 1.0703 5.3711 2.1133 0.33594 0.53125 0.44531 1.0547 0.24219 1.8516-0.20312 0.79688-0.80078 1.875-2.0586 3.1211l-3.4844 3.4375 4.8594-0.55859c3.793-0.4375 7.5938-2.6094 10.395-7.8125l0.10547-0.19141 0.050781-0.20312c0.69141-2.832 0.39453-5.5625-1.0195-7.7891-1.418-2.2227-3.8047-3.8594-6.957-5.0508l-0.074219-0.027344-0.078125-0.019532c-3.4531-0.94922-6.6523-1.0469-9.6445-0.57812zm0.48047 3.3047c2.5273-0.39844 5.2188-0.28125 8.1875 0.51953 2.6602 1.0195 4.3633 2.2812 5.2383 3.6602 0.85938 1.3477 1.0312 2.9297 0.56641 4.9961-1.1133 1.9922-2.2422 3.3398-3.418 4.207 0.019531-0.0625 0.10156-0.12109 0.11719-0.18359 0.40234-1.5898 0.12891-3.207-0.66406-4.4688-1.5898-2.5234-4.7656-3.6875-8.2891-3.7383h-0.125l-0.11719 0.011719c-4.1211 0.53125-7.0469 3.5859-8.4609 7.0312-1.4141 3.4453-1.5195 7.4414 0.38672 10.461 2.3828 3.7695 7.3438 4.9648 11.988 4.8438s9.3086-1.4336 11.449-4.7734c2.9141-4.5391 7.1914-9.1836 11.891-10.949 5.4883-1.8359 12.703-2.0117 24.754 0.82422l0.38672 0.09375 0.38672-0.09375c12.035-2.832 20.004-2.6445 25.457-0.82422 4.6953 1.7617 8.9766 6.4062 11.891 10.949 2.1406 3.3359 6.8008 4.6445 11.449 4.7656 4.6445 0.12109 9.6055-1.0703 11.988-4.8398 1.9062-3.0195 1.8008-7.0156 0.38672-10.461-1.4141-3.4453-4.3398-6.4961-8.4609-7.0312l-0.125-0.011718h-0.11719c-3.5234 0.054687-6.6992 1.2148-8.2891 3.7383-0.79297 1.2617-1.0664 2.8789-0.66406 4.4688 0.019531 0.074219 0.11719 0.14453 0.13672 0.21875-1.1836-0.86719-2.3164-2.2305-3.4375-4.2422-0.46094-2.0625-0.28516-3.6445 0.57031-4.9883 0.87891-1.3789 2.5742-2.6406 5.2344-3.6602 5.9336-1.6055 10.703-0.39453 15.41 1.9492 2.3945 1.7227 4.6602 3.1367 6.3477 5.3516 1.7148 2.2539 2.9844 5.3984 3.1328 10.949v0.015625c0.085937 2.5273-0.16016 4.9727-1.5078 7.6367-1.3438 2.6523-3.8555 5.5742-8.4453 8.8086-2.1172 1.2578-4.6094 1.9492-7.7695 2.2852l-2.5156 0.26172 1.2188 2.2266c5.7461 10.488 5.4688 18.828 7.1211 26.305 0.17188 3.7031-0.12109 5.668-0.59766 6.793-0.48047 1.1328-1.1836 1.7031-2.4805 2.8164l-0.011718 0.011718-0.011719 0.007813c-1.4688 1.3047-3.9023 2.8555-5.8867 4.0273-0.99219 0.58594-1.8711 1.0859-2.5 1.4492-0.31641 0.17969-0.55859 0.32422-0.76172 0.45312-0.10156 0.066406-0.17188 0.089844-0.35547 0.25-0.046874 0.039063-0.10547 0.085938-0.19141 0.18359-0.042968 0.046875-0.097656 0.11328-0.15625 0.21094-0.03125 0.046874-0.097656 0.17578-0.097656 0.17969l-7.0391 10.211c-5.2891 4.5625-8.0586 5.9609-11.047 7.8281l-0.67969 0.42187-0.097656 0.79688c-0.30859 2.4727-1.3828 3.7734-3.082 4.918-1.6992 1.1445-4.0625 1.9609-6.4961 2.8984l-0.55859 0.21875-0.29688 0.51953c-1.3555 2.3711-2.4297 3.2148-3.4297 3.6484-1 0.43359-2.1602 0.45703-3.7578 0.66016l-0.73828 0.09375-0.42969 0.59766c-0.76172 1.0703-1.332 1.418-1.9609 1.625-0.62891 0.21094-1.4414 0.23828-2.543 0.23828h-0.69922l-0.49219 0.49219c-0.97656 0.97656-1.9414 1.4922-2.9023 2.0938l-3.3359-2.125-0.30859-0.058594c-1.8789-0.375-3.3516-0.58984-4.4375-2.2188l-0.46094-0.69922-0.83594-0.050781c-2.7383-0.18359-4.2109-0.76172-5.1133-1.4297-0.90234-0.66797-1.375-1.5078-1.8867-2.707l-0.31641-0.74609-0.78906-0.21875c-3.7695-1.0273-8.6211-3.3281-10.211-8.418l-0.18359-0.57812-9.8086-6.4102c-2.125-2.8398-4.3516-6.043-6.5-8.7422-2.2109-2.7734-4.1211-5.0898-6.6094-5.918l0.36719 0.17969c-3.9219-2.4961-7.0742-4.8555-8.3672-8.1562-0.26953-11.406 1.5352-20.324 6.7227-30.664l0.99219-1.9766-2.1641-0.43359c-2.4414-0.49219-4.918-1.4766-7.418-3.2969l-0.023438-0.015625c-4.6484-3.2617-7.0469-6.0391-8.3477-8.6172-1.2969-2.5703-1.5586-5.043-1.6445-7.957 0.023438-5.3633 1.2812-8.4844 3.0273-10.77 1.7188-2.25 4.0508-3.7344 6.4453-5.457 2.3477-1.168 4.707-2.0703 7.2227-2.4688zm81.211 51.5c-2.9375 2.2031-6.6055 4.0391-16.52 1.1016-2.5703-1.1016-6.6055-2.5703-9.9102-4.0391-5.1406 0.36719-8.0742 3.6719-11.379 4.4062-5.1406 1.4688-9.9102 2.9375-15.051-0.36719-2.5703-1.4688-4.1484-7.9141-5.6172-15.254 15.473-2.457 27.043-5.5156 31.578-9.6797 4.1875 4.125 15.723 6.4883 30.984 9.4766-1.1016 4.7734-2.2539 9.9531-4.0898 14.355zm-90.59-96.102c11.648-2.1562 23.148-2.8477 34.488-1.9492 9.7109 1.3203 19.332 2.707 27.844 4.9258 11.727-1.9453 23.453-5.0234 35.176-5.6133 4.9805-0.33984 10.219-0.039062 15.812 1.1445 4.5977 0.38281 9.7422-0.14453 13.52 1.6055 0.54688 2.1641 1.6758 3.5664-0.6875 8.0195l-2.5195 2.1758c-2.2891 6.4141-4.3125 12.562-6.3008 18.676-2.6484 4.9375-5.8242 9.5742-13.293 11.801-5.8789 1.2773-11.852 2.0039-18.332-0.34375-2.8125-1.1562-4.9648-0.99609-10.082-6.7617-3.543-5.1562-4.9492-10.312-7.1055-15.469-2.5273-9.0078-7.8984-7.3789-10.656 0.34375-1.3828 5.5977-2.9531 11.156-7.332 16.156-2.7578 2.3789-4.8945 4.8516-11.457 6.6445-5.5508 0.77344-11.109 1.4805-16.957-1.0312-2.9414-1.4219-5.8203-2.3867-9.0508-5.8438-2.0508-2.418-3.5625-5.375-4.6992-8.707-1.7227-5.4688-3.3711-10.859-5.3867-16.613l-2.5195-1.1445c-1.0508-2.6719-0.92188-5.3477-0.45703-8.0195zm70.375 194.01 13.48-23.594c-6.4219 2.0859-13.328 3.2969-20.23 3.2969-6.9141 0-13.828-1.2305-20.215-3.2969l13.48 23.594-10.113 74.152 16.852 13.48 16.852-13.48zm128.72-3.668c-14.312-14.301-47.109-30.848-81.383-40.777l-30.012 132.77c70.766-4.125 124.84-26.055 124.84-52.57 0.027344 0-6.0664-32.074-13.441-39.422zm-270.92 0c-7.3477 7.3477-13.445 39.422-13.445 39.422 0 26.512 54.082 48.445 124.86 52.57l-30.035-132.77c-34.262 9.9258-67.062 26.477-81.379 40.777zm407.45-95.957c-4.4805 3.6016-6.8828 4.207-17.207 1.1484-2.6758-1.1484-6.6094-4.1719-10.324-4.207-4.2383-0.039063-8.4141 3.8242-11.855 4.5898-5.3516 1.5312-11.414 2.6406-15.676-0.38281-4.6016-3.2656-4.4414-8.1133-5.9805-15.84 24.816-8.625 27.73-14.512 32.195-23.125 5.4961 12.324 14.418 16.656 31.082 22.797 0.63672 0.23438 1.2773 0.47656 1.8984 0.76172-1.1523 5-0.28906 11.164-4.1367 14.258zm-8.4922-49.367c-21.734-4.2539-39.414-0.42188-39.414-0.42188-20.637 3.8984-40.684 30.223-40.266 48.477-2.3164 7.4102-3.4336 14.902-3.2148 22.73 1.5312 4.207 5.3516 6.8828 9.5586 9.5586 3.4414 1.1484 8.4141 8.793 13 14.914l9.9414 6.5c1.9102 6.1172 7.6484 8.793 11.855 9.9414 1.1484 2.6758 2.6758 4.9727 8.793 5.3516 1.5312 2.293 3.8242 2.6758 5.7344 3.0586l4.207 2.6758c1.1484-0.76562 2.6758-1.5312 4.207-3.0586 2.293 0 4.207 0 6.1172-2.6758 3.0586-0.38281 5.7344 0 8.793-5.3516 4.9727-1.9102 10.324-3.4414 11.09-9.5586 3.0586-1.9102 6.1172-3.4414 11.855-8.4141l7.6484-11.094c-0.38281 0 6.5-3.4414 9.9414-6.5 2.6758-2.293 4.207-3.4414 3.8242-11.473-1.0508-4.6211-1.6406-10.164-3.4141-16.375 2.8633-19.895-22.766-44.867-40.258-48.289zm-9.7266-22.109c5.3398-0.74219 18.051-4.9883 27.453-11.242 4.7578-3.5586 11.449-7.3984 11.379-9.0664-0.046876-1.1523-2.8945-1.543-8.6484-2.1211-22.969 0.14453-36.465 3.1211-30.184 22.43zm-76.117-23.242c12.129-2.2461 24.102-2.9648 35.914-2.0273 10.113 1.375 20.129 2.8203 28.992 5.1289 12.211-2.0273 24.418-5.2305 36.629-5.8477 5.1875-0.35547 10.641-0.042969 16.465 1.1914 4.7891 0.39844 10.145-0.14844 14.078 1.6719 0.57031 2.2539 1.7422 3.7109-0.71484 8.3516l-2.625 2.2656c-2.3828 6.6797-4.4922 13.082-6.5625 19.449-2.7578 5.1406-6.0664 9.9688-13.84 12.289-6.1211 1.332-12.34 2.0859-19.09-0.35938-2.9297-1.2031-5.1719-1.0352-10.5-7.0391-3.6914-5.3672-5.1523-10.738-7.3984-16.105-2.6328-9.3828-8.2227-7.6836-11.098 0.35938-1.4375 5.8281-3.0742 11.617-7.6367 16.824-2.8711 2.4766-5.0938 5.0547-11.93 6.9219-5.7812 0.80469-11.566 1.543-17.656-1.0742-3.0625-1.4805-6.0586-2.4844-9.4258-6.0859-2.1328-2.5195-3.7109-5.5938-4.8906-9.0664-1.7969-5.6914-3.5117-11.305-5.6094-17.301l-2.625-1.1914c-1.0938-2.7852-0.96094-5.5664-0.47656-8.3516zm12.168 24.34c5.3398-0.75 26.824-6.6992 36.984-12.168 2.6406-1.4219 6.5352-4.2383 6.2031-5.25-0.49609-1.5195-5.1445-4.168-13.004-5.0117-9.9219-1.0664-25.566-0.71094-30.426 2.2656-3.2891 2.0156-0.66016 20.164 0.23828 20.164zm60.82 170.46 13.48-23.594c-6.4219 2.0859-13.328 3.2969-20.23 3.2969-6.9141 0-13.828-1.2305-20.215-3.2969l13.48 23.594-10.113 74.152 16.852 13.48 16.852-13.48zm128.73-3.6758c-14.312-14.301-47.109-30.848-81.383-40.777l-30.012 132.77c70.766-4.125 124.84-26.055 124.84-52.57 0.027343 0-6.0664-32.074-13.441-39.422zm-270.92 0c-7.3477 7.3477-13.445 39.422-13.445 39.422 0 26.512 54.082 48.445 124.86 52.57l-30.035-132.77c-34.266 9.9258-67.062 26.477-81.383 40.777z"/>
 </g>
</svg>
